<svg xmlns:xlink="http://www.w3.org/1999/xlink" width="69.686ex" height="16.343ex" style="vertical-align: -9.838ex;" viewBox="0 -2800.6 30003.7 7036.4" role="img" focusable="false" xmlns="http://www.w3.org/2000/svg" aria-labelledby="MathJax-SVG-1-Title">
<title id="MathJax-SVG-1-Title">\underbrace {\left.{\begin{array}{rl}\textstyle {\mathtt {ALTER~clause:}}&amp;\{{\mathtt {ALTER~TABLE~\overbrace {\mathtt {countries}} ^{\mathtt {table}}}}\}\\\textstyle {\mathtt {ADD~clause:}}&amp;\{{\mathtt {ADD~COLUMN~\overbrace {\mathtt {continent}} ^{\mathtt {new~column}}~\overbrace {\mathtt {TEXT}} ^{\mathtt {type}}}}\}{\texttt {;}}\end{array}}\right\}\textstyle {\texttt {statement}}} _{\textstyle {\mathtt {ALTER~statement~(changes~the~shape~of~the~table,~not~its~rows)}}}</title>
<defs aria-hidden="true">
<path stroke-width="1" id="E1-MJTT-41" d="M191 76Q212 75 220 68T229 38Q229 10 208 1H129H80Q48 1 38 7T28 38Q28 51 29 57T40 69T70 76Q89 76 89 78Q90 79 117 205T173 461T205 599Q212 623 250 623H262H273Q312 623 319 599Q322 591 350 461T406 205T435 78Q435 76 454 76H458Q484 76 493 59Q496 53 496 38Q496 11 478 3Q474 1 395 1H317Q295 8 295 38Q295 65 311 73Q316 75 333 76L348 77V78Q348 80 341 112L334 143H190L183 112Q176 80 176 78Q175 76 178 76Q180 76 191 76ZM318 221Q313 238 288 366T263 519Q263 526 262 527Q261 527 261 520Q261 493 236 365T206 221Q206 219 262 219T318 221Z"></path>
<path stroke-width="1" id="E1-MJTT-4C" d="M27 594Q34 605 43 608T84 611H154H213Q258 611 269 605T281 573Q281 546 263 538Q257 535 222 535H185V76H404V118V145Q404 168 411 177T446 186H453Q478 186 486 167Q488 161 488 93V50Q488 24 485 17T466 1L258 0H147H99Q47 0 36 6T25 38Q25 59 35 69Q44 76 76 76H101V535H76H64Q36 535 27 552Q25 557 25 573T27 594Z"></path>
<path stroke-width="1" id="E1-MJTT-54" d="M129 38Q129 51 129 55T135 65T151 76H220V535H110V501Q110 470 109 464T101 450Q93 442 68 442H60Q37 442 28 461Q26 466 26 527L27 589Q36 607 49 610H55Q61 610 72 610T97 610T131 610T170 611T215 611T264 611H476Q478 609 483 606T489 602T493 598T496 593T497 586T498 576T498 562V526V488Q498 452 480 444Q476 442 456 442Q431 442 423 450Q416 457 415 463T414 501V535H304V76H374Q389 67 392 61T396 38Q396 10 374 1H151Q140 5 135 11T130 21T129 38Z"></path>
<path stroke-width="1" id="E1-MJTT-45" d="M374 271Q374 241 367 232T332 223Q307 223 299 231Q290 240 290 263V279H173V76H418V118V144Q418 167 426 176T460 186Q491 186 500 166Q502 161 502 93V52Q502 25 499 17T480 1H41Q19 9 19 32V38Q19 63 36 73Q42 76 65 76H89V535H65H55Q44 535 38 537T25 548T19 573Q19 602 41 610H47Q53 610 63 610T88 610T121 610T160 611T204 611T251 611H458Q460 609 465 606T471 602T475 598T478 593T479 586T480 576T480 562V526V488Q480 452 462 444Q458 442 438 442Q413 442 405 450Q398 457 397 463T396 501V535H173V355H290V371Q290 394 299 403T332 412Q363 412 372 392Q374 387 374 317V271Z"></path>
<path stroke-width="1" id="E1-MJTT-52" d="M16 571Q16 598 27 605T76 612Q84 612 108 612T148 611Q268 611 294 605Q346 592 389 550T432 440Q432 394 410 359Q393 329 366 310L358 303Q387 273 399 239Q405 219 405 178T408 106T421 68Q426 65 428 65Q433 65 435 74T438 96T441 112Q450 130 480 130H485Q519 130 522 100Q522 79 516 56T488 11T434 -11Q421 -11 408 -8T377 5T344 37T324 93Q322 101 322 154L321 209Q304 257 257 267Q252 268 207 268H165V76H186H192Q204 76 211 75T224 64T230 38Q230 10 208 1H39Q28 5 23 11T18 21T17 38V44Q17 66 33 73Q40 76 60 76H81V535H60Q45 535 38 536T24 545T16 571ZM348 440Q348 478 321 502T260 532Q252 534 208 535H165V344H208Q212 344 223 344T239 345T252 346T266 348T278 351T293 358Q348 387 348 440Z"></path>
<path stroke-width="1" id="E1-MJTT-63" d="M291 -6Q196 -6 131 60T66 216Q66 296 119 361Q154 403 200 421T273 439Q275 440 293 440H313Q400 440 433 409Q454 388 454 359Q454 335 439 321T402 306Q380 306 365 321T350 357V362L340 363Q339 363 326 363T303 364Q280 364 266 362Q217 352 184 313T151 215Q151 153 199 112T313 70Q341 70 357 85T381 118T394 140Q402 146 424 146Q443 146 447 144Q466 137 466 117Q466 106 457 88T429 47T374 10T291 -6Z"></path>
<path stroke-width="1" id="E1-MJTT-6C" d="M51 573Q51 602 73 610H76Q79 610 84 610T97 610T113 610T133 611T155 611T179 611H282Q301 598 304 586V76H452Q466 67 470 60T474 38Q474 10 452 1H73Q51 9 51 32V38Q51 54 54 60T73 76H220V535H146L73 536Q51 545 51 567V573Z"></path>
<path stroke-width="1" id="E1-MJTT-61" d="M126 306Q105 306 90 321T74 359Q74 439 211 439Q268 439 276 438Q343 426 383 390T430 306Q431 301 431 190V81Q446 79 465 78T492 76T509 72T521 60T524 38Q524 11 506 3Q502 1 466 1Q426 1 406 5T379 14T355 36L345 30Q284 -6 205 -6Q135 -6 92 39T48 141Q48 182 79 212T158 256T252 278T342 285H347V290Q347 315 325 335T267 362Q258 363 224 363Q189 363 185 362H179L178 358Q178 353 178 352T176 345T174 337T170 330T165 322T158 316T150 311T139 308T126 306ZM132 140Q132 115 157 93T224 70Q269 70 302 87T344 133Q346 139 347 175V211H339Q256 209 194 190T132 140Z"></path>
<path stroke-width="1" id="E1-MJTT-75" d="M4 393Q4 416 15 423T52 431H90Q141 431 151 429T168 417Q171 412 173 409V254L174 100Q182 70 244 70Q320 70 344 119Q349 130 350 144T351 248V355H320L289 356Q266 363 266 393Q266 408 270 415T289 431H351H386Q409 431 418 428T433 411Q435 406 435 241V76H498Q512 67 516 60T520 38Q520 9 498 1H436H394Q372 1 364 5T351 26L342 21Q293 -5 227 -5Q118 -5 96 67Q91 82 90 101T89 227V355H58L27 356Q4 363 4 393Z"></path>
<path stroke-width="1" id="E1-MJTT-73" d="M72 317Q72 361 108 396T229 439Q231 439 245 439T268 440Q303 439 324 435T353 427T363 423L372 432Q380 440 397 440Q430 440 430 395Q430 390 430 380T429 366V335Q429 311 422 302T387 293Q364 293 355 300T346 316T343 336T325 353Q306 364 257 364Q209 364 178 351T147 317Q147 284 231 272Q327 256 357 247Q458 210 458 129V121Q458 74 413 34T271 -6Q246 -6 224 -3T189 5T165 14T150 22T144 26Q142 23 139 18T135 11T132 6T128 1T124 -2T119 -4T113 -5T104 -6Q84 -6 78 6T71 43Q71 48 71 60T72 79Q72 132 73 141T81 157Q90 166 115 166Q135 166 142 162T157 140Q168 108 191 90T260 70Q297 70 323 76T361 91T379 110T384 129Q384 157 346 171T247 195T165 212Q119 228 96 256T72 317Z"></path>
<path stroke-width="1" id="E1-MJTT-65" d="M48 217Q48 295 100 361T248 439L258 440Q268 440 274 440Q329 438 369 416T428 359T456 292T464 228Q464 215 461 208T454 198T442 190L288 189H135L138 179Q153 132 199 102T303 71Q336 71 353 86T380 120T398 143Q404 146 422 146Q453 146 462 126Q464 120 464 116Q464 84 416 39T285 -6Q187 -6 118 59T48 217ZM377 264Q371 291 365 306T341 338T294 362Q288 363 264 363Q225 363 190 336T139 264H377Z"></path>
<path stroke-width="1" id="E1-MJTT-3A" d="M193 361Q193 396 214 413T258 431Q291 431 311 411T332 361Q332 335 314 314T262 292Q234 292 214 309T193 361ZM193 70Q193 105 214 122T258 140Q291 140 311 120T332 70Q332 44 314 23T262 1Q234 1 214 18T193 70Z"></path>
<path stroke-width="1" id="E1-MJMAIN-7B" d="M434 -231Q434 -244 428 -250H410Q281 -250 230 -184Q225 -177 222 -172T217 -161T213 -148T211 -133T210 -111T209 -84T209 -47T209 0Q209 21 209 53Q208 142 204 153Q203 154 203 155Q189 191 153 211T82 231Q71 231 68 234T65 250T68 266T82 269Q116 269 152 289T203 345Q208 356 208 377T209 529V579Q209 634 215 656T244 698Q270 724 324 740Q361 748 377 749Q379 749 390 749T408 750H428Q434 744 434 732Q434 719 431 716Q429 713 415 713Q362 710 332 689T296 647Q291 634 291 499V417Q291 370 288 353T271 314Q240 271 184 255L170 250L184 245Q202 239 220 230T262 196T290 137Q291 131 291 1Q291 -134 296 -147Q306 -174 339 -192T415 -213Q429 -213 431 -216Q434 -219 434 -231Z"></path>
<path stroke-width="1" id="E1-MJTT-42" d="M39 1Q17 10 17 32V38V46Q17 65 34 73Q40 76 61 76H84V535H61H54Q27 535 19 553Q17 557 17 573Q17 583 17 587T23 599T39 610Q40 611 179 611Q320 610 332 607Q332 607 339 605Q394 591 427 547T461 454Q461 413 436 378T369 325L358 320Q405 311 443 270T482 169Q482 112 445 64T345 3L334 1H39ZM309 533Q302 535 234 535H168V356H230Q284 357 296 358T323 368Q346 380 361 402T377 452Q377 482 358 505T309 533ZM398 176Q396 218 371 246T315 279Q310 280 237 280H168V76H239Q316 77 327 81Q329 82 334 84Q398 107 398 176Z"></path>
<path stroke-width="1" id="E1-MJTT-6F" d="M52 216Q52 318 118 379T261 440Q343 440 407 378T472 216Q472 121 410 58T262 -6Q176 -6 114 58T52 216ZM388 225Q388 281 351 322T261 364Q213 364 175 325T136 225Q136 158 174 114T262 70T350 114T388 225Z"></path>
<path stroke-width="1" id="E1-MJTT-6E" d="M89 431Q94 431 105 431T122 432Q173 432 173 399Q173 394 175 394Q176 394 190 404T233 425T298 436Q343 436 371 423Q411 402 423 365T436 265Q436 257 436 239T435 211V198V76H498Q512 67 516 60T520 38Q520 9 498 1H308Q286 9 286 32V38V45Q286 65 303 73Q309 76 329 76H351V188Q351 204 351 230T352 266Q352 321 341 341T288 361Q253 361 222 341T176 274L174 264L173 170V76H236Q250 67 254 60T258 38Q258 9 236 1H27Q4 8 4 38Q4 53 8 60T27 76H89V355H58L27 356Q4 363 4 393Q4 408 8 415T27 431H89Z"></path>
<path stroke-width="1" id="E1-MJTT-74" d="M25 395Q26 405 26 408T29 416T35 423T48 431H145V481L146 532Q154 547 161 550T184 554H189Q218 554 227 534Q229 529 229 480V431H405Q406 430 411 427T418 422T422 416T426 407T427 393Q427 387 427 382T424 374T421 368T417 363T413 360T408 358L405 356L317 355H229V249Q229 237 229 214T228 179Q228 126 241 98T295 70Q354 70 365 149Q366 167 375 174Q383 182 407 182H415Q438 182 446 166Q448 161 448 148Q448 84 398 39T282 -6Q226 -6 189 29T146 128Q145 134 145 247V355H96H72Q45 355 35 362T25 395Z"></path>
<path stroke-width="1" id="E1-MJTT-72" d="M327 76Q359 76 369 70T380 38Q380 10 359 1H47Q24 8 24 38Q24 54 28 61T47 76H145V355H96L47 356Q24 363 24 393Q24 409 28 416T47 431H207Q223 419 226 414T229 393V387V369Q297 437 394 437Q436 437 461 417T487 368Q487 347 473 332T438 317Q428 317 420 320T407 327T398 337T393 347T390 356L388 361Q348 356 324 345Q228 299 228 170Q228 161 228 151T229 138V76H293H327Z"></path>
<path stroke-width="1" id="E1-MJTT-69" d="M202 538T202 559T218 596T260 612Q283 612 300 597T317 560Q317 538 300 523T260 507Q235 507 219 522ZM411 76Q441 76 451 69T462 38Q462 29 462 26T460 18T453 9T440 1H94Q72 8 72 33V38Q72 46 72 49T74 58T81 68T94 76H233V355H167L102 356Q80 363 80 393Q80 418 91 425T138 432Q145 432 165 432T200 431H295Q297 429 303 425T310 420T314 415T317 404T317 389T318 363Q318 354 318 314T317 241V76H378H411Z"></path>
<path stroke-width="1" id="E1-MJSZ4-E150" d="M-18 -213L-24 -207V-172L-16 -158Q75 2 260 84Q334 113 415 119Q418 119 427 119T440 120Q454 120 457 117T460 98V60V25Q460 7 457 4T441 0Q308 0 193 -55T25 -205Q21 -211 18 -212T-1 -213H-18Z"></path>
<path stroke-width="1" id="E1-MJSZ4-E151" d="M-10 60Q-10 104 -10 111T-5 118Q-1 120 10 120Q96 120 190 84Q375 2 466 -158L474 -172V-207L468 -213H451H447Q437 -213 434 -213T428 -209T423 -202T414 -187T396 -163Q331 -82 224 -41T9 0Q-4 0 -7 3T-10 25V60Z"></path>
<path stroke-width="1" id="E1-MJSZ4-E153" d="M-10 60V95Q-10 113 -7 116T9 120Q151 120 250 171T396 284Q404 293 412 305T424 324T431 331Q433 333 451 333H468L474 327V292L466 278Q375 118 190 36Q95 0 8 0Q-5 0 -7 3T-10 24V60Z"></path>
<path stroke-width="1" id="E1-MJSZ4-E152" d="M-24 327L-18 333H-1Q11 333 15 333T22 329T27 322T35 308T54 284Q115 203 225 162T441 120Q454 120 457 117T460 95V60V28Q460 8 457 4T442 0Q355 0 260 36Q75 118 -16 278L-24 292V327Z"></path>
<path stroke-width="1" id="E1-MJSZ4-E154" d="M-10 0V120H410V0H-10Z"></path>
<path stroke-width="1" id="E1-MJTT-62" d="M4 573Q4 596 15 603T52 611H90H124Q146 611 155 608T171 591Q173 586 173 491V396L182 402Q217 424 256 431Q280 437 309 437Q376 437 434 379T492 217Q492 162 473 118T422 47T358 8T293 -6Q229 -6 174 38Q171 13 163 7T135 1H131H122Q99 1 90 23L89 279V535H58L27 536Q4 543 4 573ZM409 215Q409 269 377 315T283 361Q255 361 224 344T177 297L173 290V167Q189 124 213 97T278 70Q330 70 369 111T409 215Z"></path>
<path stroke-width="1" id="E1-MJMAIN-7D" d="M65 731Q65 745 68 747T88 750Q171 750 216 725T279 670Q288 649 289 635T291 501Q292 362 293 357Q306 312 345 291T417 269Q428 269 431 266T434 250T431 234T417 231Q380 231 345 210T298 157Q293 143 292 121T291 -28V-79Q291 -134 285 -156T256 -198Q202 -250 89 -250Q71 -250 68 -247T65 -230Q65 -224 65 -223T66 -218T69 -214T77 -213Q91 -213 108 -210T146 -200T183 -177T207 -139Q208 -134 209 3L210 139Q223 196 280 230Q315 247 330 250Q305 257 280 270Q225 304 212 352L210 362L209 498Q208 635 207 640Q195 680 154 696T77 713Q68 713 67 716T65 731Z"></path>
<path stroke-width="1" id="E1-MJTT-44" d="M38 1Q16 8 16 38Q16 62 32 73Q39 76 58 76H78V535H58Q40 535 32 538Q16 548 16 573Q16 587 17 591Q23 604 34 607T83 611H166H176Q188 611 209 611T239 612Q299 612 337 597T415 530Q485 438 485 300Q485 180 431 100T301 3L291 1H38ZM400 301Q400 363 385 410T346 482T303 519T267 534Q261 535 210 535H162V76H214L267 77Q323 89 361 148T400 301Z"></path>
<path stroke-width="1" id="E1-MJTT-43" d="M40 305Q40 437 110 529T281 622Q315 622 343 611T387 589T404 578Q409 585 415 596T425 611T435 618T452 622Q472 622 478 609T485 566Q485 559 485 540T484 508V460Q484 413 478 403T442 393Q417 393 409 402Q400 409 400 420Q400 428 395 445T380 487T347 528T295 546Q235 546 180 483T124 306Q124 245 141 197T186 121T241 80T296 66Q346 66 373 103T400 178Q400 209 435 209H442H450Q484 209 484 172Q480 96 421 43T281 -11Q177 -11 109 84T40 305Z"></path>
<path stroke-width="1" id="E1-MJTT-4F" d="M102 588Q140 621 240 621Q323 621 335 620Q393 613 422 588Q450 560 459 493T468 306Q468 185 460 118T422 23Q382 -10 289 -10H262H235Q142 -10 102 23Q74 50 65 118T56 306Q56 427 64 494T102 588ZM363 513Q357 523 347 530T324 540T302 544T280 546H268Q192 546 167 521Q150 501 145 452T140 300Q140 235 142 197T151 130T172 89T207 71T262 65Q317 65 341 81T374 144T384 300Q384 474 363 513Z"></path>
<path stroke-width="1" id="E1-MJTT-55" d="M-3 573Q-3 597 8 604T50 612Q57 612 77 612T111 611H200Q214 602 218 595T222 573Q222 549 205 538Q198 535 175 535H151V359Q151 333 151 291Q152 177 156 162Q157 160 157 159Q165 123 193 95T262 66Q303 66 330 94T367 159Q371 175 371 191T373 359V535H349H339Q328 535 322 537T309 548T303 573T306 595T325 611H506Q520 602 524 595T528 573Q528 549 511 538Q504 535 481 535H457V364Q457 189 456 182Q448 101 394 45T262 -11Q189 -11 132 43T68 182Q67 189 67 364V535H43H33Q22 535 16 537T3 548T-3 573Z"></path>
<path stroke-width="1" id="E1-MJTT-4D" d="M50 535Q37 536 31 537T18 547T12 573Q12 598 22 604T62 611H91H121Q147 611 158 607T178 587Q183 579 222 446T261 293Q261 289 262 288Q263 288 263 292Q263 311 298 434T346 588Q353 603 365 607T402 611H435H450Q488 611 500 605T512 573Q512 556 506 547T493 537T474 535H459V76H474Q487 75 493 74T505 64T512 38Q512 11 494 3Q490 1 424 1H386Q355 1 345 7T335 38Q335 55 341 64T354 74T373 76H388V302Q388 512 387 519Q382 482 346 359T304 228Q292 204 262 204T220 228Q215 237 179 359T137 519Q136 512 136 302V76H151Q164 75 170 74T182 64T189 38Q189 11 171 3Q167 1 101 1H63Q32 1 22 7T12 38Q12 55 18 64T31 74T50 76H65V535H50Z"></path>
<path stroke-width="1" id="E1-MJTT-4E" d="M20 571Q20 598 30 604T73 611H105H136Q152 611 160 611T177 607T189 601T198 587T206 568T217 537T231 497Q354 142 365 95L368 84V535H347H342Q314 535 306 552Q304 556 304 573Q304 586 304 590T310 600T326 611H482Q497 602 500 596T504 573Q504 559 501 551T491 540T478 536T460 535H439V25Q432 7 424 4T389 0H374Q334 0 322 31L293 115Q171 468 159 517L156 528V76H177H183Q195 76 202 75T215 64T221 38Q221 10 199 1H43Q32 5 27 11T22 21T21 38V44Q21 66 37 73Q44 76 64 76H85V535H64Q49 535 42 536T28 545T20 571Z"></path>
<path stroke-width="1" id="E1-MJTT-77" d="M54 355Q16 355 16 388V393Q16 423 37 430Q41 431 125 431H162Q206 431 218 425T230 393Q230 366 212 358Q206 355 174 355Q141 355 141 354L150 296Q181 110 181 89V84Q182 85 183 96Q185 118 199 173T218 237Q223 247 245 259H264H268Q294 259 309 240Q315 229 329 174T343 92Q343 84 344 84V86Q344 88 344 91T345 97Q347 125 356 187T374 301T383 354Q383 355 350 355H333Q314 355 304 362T294 393Q294 420 312 428Q318 431 401 431H440Q485 431 496 425T508 393Q508 382 508 377T498 363T470 355L455 354Q455 353 441 271T413 104T396 16Q384 -4 355 -4H351Q315 -4 305 9T280 79Q278 90 276 96Q265 149 265 169Q265 176 264 169Q263 166 263 162Q261 130 248 79T230 18Q220 -4 183 -4H175L151 -3Q134 5 127 17L112 102Q97 188 83 270T69 354Q62 355 54 355Z"></path>
<path stroke-width="1" id="E1-MJTT-6D" d="M133 76Q156 74 164 67T172 38Q172 9 151 1H11Q-12 8 -12 38Q-12 61 5 73Q10 75 28 76H45V355H28Q10 356 5 358Q-12 370 -12 393Q-12 419 11 431H52H70Q91 431 100 427T116 405Q163 436 200 436Q255 436 281 390L285 394Q289 398 292 400T301 407T314 415T329 423T346 429T366 434T389 436H392Q425 436 448 411Q469 390 474 360T480 268V232V203V76H497Q520 74 528 67T536 38Q536 9 515 1H396Q374 9 374 32V38Q374 73 402 76H409V191V242Q409 317 404 339T375 361Q343 361 323 332T299 264Q298 258 298 165V76H315Q338 74 346 67T354 38Q354 9 333 1H214Q192 9 192 32V38Q192 73 220 76H227V191V242Q227 317 222 339T193 361Q161 361 141 332T117 264Q116 258 116 165V76H133Z"></path>
<path stroke-width="1" id="E1-MJTT-58" d="M39 571Q39 597 49 604T93 611H141H218Q233 602 236 595T239 573Q239 538 210 535Q202 535 202 534T215 507T243 454L257 428L307 535H298Q266 538 266 573Q266 584 267 588T273 598T289 611H366H401Q442 611 454 605T466 573Q466 546 448 538Q442 535 421 535H398L299 327Q299 323 362 201L426 77L449 76Q467 76 475 75T489 65T495 38Q495 11 477 3Q473 1 395 1H317Q295 8 295 38Q295 73 325 76L334 77Q333 78 314 117T276 196L257 235L239 196Q221 157 204 118T186 77Q190 76 196 76Q211 74 218 67T227 55T228 38Q228 28 227 24T221 13T206 1H50Q28 9 28 32V38Q28 63 45 73Q51 76 73 76H96L214 324Q215 327 162 431L108 535H85H79Q67 535 60 536T46 546T39 571Z"></path>
<path stroke-width="1" id="E1-MJTT-79" d="M26 393Q26 417 37 424T80 431H134H217Q232 422 235 416T239 393Q239 379 236 371T226 360T214 356T197 355L179 354V353L188 330Q197 306 209 272T235 201T259 133T271 89V84L274 95Q279 122 298 185T335 300T352 354Q352 355 331 355Q312 355 304 358Q288 368 288 393Q288 408 291 415T310 431H478Q479 430 484 427T491 422T495 416T499 407T500 393Q500 376 493 367T479 357T458 355H452Q426 355 425 353Q420 337 351 124T280 -94Q240 -195 168 -220Q147 -228 125 -228Q89 -228 66 -201T42 -139Q42 -116 56 -102T93 -87Q117 -87 130 -102T144 -135V-138H126Q121 -148 121 -150T130 -152Q182 -147 207 -87Q211 -78 223 -40T236 1Q230 10 102 355H75L49 356Q26 363 26 393Z"></path>
<path stroke-width="1" id="E1-MJTT-70" d="M89 431Q93 431 104 431T121 432Q173 432 173 401V396L182 402Q237 437 305 437Q376 437 434 378T492 217Q492 146 459 93T382 17T291 -6Q261 -6 232 5T188 26L174 37Q173 37 173 -54V-146H236Q250 -155 254 -162T258 -184Q258 -213 236 -221H27Q4 -214 4 -184Q4 -169 8 -162T27 -146H89V355H58L27 356Q4 363 4 393Q4 408 8 415T27 431H89ZM409 215Q409 269 377 315T283 361Q255 361 224 344T177 297L173 290V167Q189 124 213 97T278 70Q330 70 369 111T409 215Z"></path>
<path stroke-width="1" id="E1-MJTT-3B" d="M193 361Q193 396 214 413T258 431Q291 431 311 411T332 361Q332 335 314 314T262 292Q234 292 214 309T193 361ZM193 70Q193 105 214 122T259 140Q301 140 319 108T337 33Q337 -38 291 -88T214 -139Q203 -139 189 -126T175 -97Q175 -85 182 -78T200 -66T225 -50T249 -17Q256 -3 256 0Q252 1 248 1Q242 2 235 5T218 15T200 36T193 70Z"></path>
<path stroke-width="1" id="E1-MJSZ4-23AB" d="M170 875Q170 892 172 895T189 899H194H211L222 893Q345 826 420 715T503 476Q504 467 504 230Q504 51 504 21T499 -9H498Q496 -10 444 -10Q402 -10 394 -9T385 -4Q384 -2 384 240V311V366Q384 469 380 513T358 609Q342 657 319 698T271 767T227 812T189 843T171 856T170 875Z"></path>
<path stroke-width="1" id="E1-MJSZ4-23AD" d="M384 -239V-57Q384 4 389 9Q391 10 455 10Q496 10 498 9Q501 8 502 5Q504 -5 504 -230Q504 -261 504 -311T505 -381Q505 -486 492 -551T435 -691Q357 -820 222 -893L211 -899H195Q176 -899 173 -896T170 -874Q170 -858 171 -855T184 -846Q262 -793 312 -709T378 -525Q378 -524 379 -522Q383 -493 384 -351Q384 -345 384 -334Q384 -276 384 -239Z"></path>
<path stroke-width="1" id="E1-MJSZ4-23AC" d="M389 1159Q391 1160 455 1160Q496 1160 498 1159Q501 1158 502 1155Q504 1145 504 925V782Q504 676 511 616T546 490Q563 446 587 408T633 345T674 304T705 278T717 268Q718 267 718 250T717 232Q717 231 697 216T648 169T588 93T534 -24T505 -179Q504 -191 504 -425Q504 -600 504 -629T499 -659H498Q496 -660 444 -660T390 -659Q387 -658 386 -655Q384 -645 384 -424Q384 -191 385 -182Q394 -49 463 61T645 241L659 250L645 259Q539 325 467 434T385 682Q384 692 384 873Q384 1153 385 1155L389 1159Z"></path>
<path stroke-width="1" id="E1-MJSZ4-23AA" d="M384 150V266Q384 304 389 309Q391 310 455 310Q496 310 498 309Q502 308 503 298Q504 283 504 150Q504 32 504 12T499 -9H498Q496 -10 444 -10T390 -9Q386 -8 385 2Q384 17 384 150Z"></path>
<path stroke-width="1" id="E1-MJTT-28" d="M437 -53Q437 -82 399 -82H394Q377 -82 342 -55Q259 7 213 102T166 306Q166 412 211 507T342 667Q377 694 393 694H399Q437 694 437 665Q437 654 426 643T397 620T356 584T311 525Q301 511 290 488T264 412T250 306Q250 191 300 105T422 -27Q437 -37 437 -53Z"></path>
<path stroke-width="1" id="E1-MJTT-68" d="M4 573Q4 596 15 603T52 611H90H124Q146 611 155 608T171 591Q173 586 173 489Q173 394 175 394L186 402Q197 410 219 420T269 434Q278 436 306 436Q343 436 371 423Q411 402 423 365T436 265Q436 257 436 239T435 211V198V76H498Q512 67 516 60T520 38Q520 9 498 1H308Q286 10 286 32V38V46Q286 65 303 73Q309 76 329 76H351V188Q351 204 351 230T352 266Q352 321 341 341T288 361Q253 361 222 341T176 274L174 264L173 170V76H236Q250 67 254 60T258 38Q258 9 236 1H27Q4 8 4 38Q4 53 8 60T27 76H89V535H58L27 536Q4 543 4 573Z"></path>
<path stroke-width="1" id="E1-MJTT-67" d="M60 274Q60 337 107 386T233 436Q278 436 316 417L329 410L338 416Q384 442 427 442T489 423T509 381T494 345T460 332Q449 332 440 338Q432 341 427 348T419 360T415 365Q414 364 410 364L383 355Q406 320 406 274Q406 211 358 162T233 112Q189 112 155 128L146 133Q142 125 142 115Q142 99 150 85T175 71Q182 72 187 70Q188 70 195 70T218 70T254 69Q259 69 275 69T297 69T318 68T340 66T361 62T384 57T405 49T428 38Q495 -1 495 -76Q495 -143 427 -186T262 -229Q161 -229 94 -185T29 -73Q30 -60 33 -48T39 -26T47 -8T57 8T67 20T77 30T86 38L91 43Q91 44 86 53T75 80T70 117Q70 142 89 183L83 194Q60 232 60 274ZM321 274Q321 312 296 337T230 362Q197 362 171 338T145 274Q145 235 170 211T233 187Q273 187 297 212T321 274ZM422 -78Q422 -54 408 -38T366 -15T315 -6T255 -4H200Q198 -4 193 -4T183 -3Q148 -3 125 -26T102 -78Q102 -110 151 -132T261 -154Q321 -154 371 -132T422 -78Z"></path>
<path stroke-width="1" id="E1-MJTT-66" d="M43 395Q44 405 44 408T47 416T53 423T66 431H176V461Q176 500 182 518Q201 570 252 593T353 617Q399 614 418 593T437 548Q437 528 424 514T387 499Q365 499 353 511T338 537V541H328Q275 536 261 494Q260 490 260 460V431H327Q334 431 346 431T364 432Q392 432 404 425T416 393T405 362T365 355H327H260V76H319Q375 76 388 71T401 38Q401 27 400 23T395 12T379 1H58Q47 6 42 12T36 23T35 38Q35 65 53 73Q59 76 117 76H176V355H121H93Q64 355 54 362T43 395Z"></path>
<path stroke-width="1" id="E1-MJTT-2C" d="M193 37T193 70T213 121T260 140Q302 140 327 108T353 36Q353 -7 336 -43T294 -98T249 -128T215 -139Q204 -139 189 -125Q177 -111 174 -101Q172 -84 183 -77T217 -61T253 -33Q261 -24 272 1L265 0Q234 0 214 18Z"></path>
<path stroke-width="1" id="E1-MJTT-29" d="M87 664Q87 694 126 694Q138 694 147 690T183 667Q266 605 312 510T358 306Q358 193 307 93T161 -70Q142 -82 126 -82Q105 -82 96 -73T87 -53Q87 -47 88 -44Q92 -36 116 -19T173 34T230 119Q273 206 273 306Q273 408 231 494T109 635Q87 649 87 664Z"></path>
</defs>
<g stroke="currentColor" fill="currentColor" stroke-width="0" transform="matrix(1 0 0 -1 0 0)" aria-hidden="true">
<g transform="translate(1110,0)">
<g transform="translate(167,0)">
<g transform="translate(-11,0)">
<g transform="translate(0,717)">
 <use xlink:href="#E1-MJTT-41" x="0" y="0"></use>
 <use xlink:href="#E1-MJTT-4C" x="525" y="0"></use>
 <use xlink:href="#E1-MJTT-54" x="1051" y="0"></use>
 <use xlink:href="#E1-MJTT-45" x="1576" y="0"></use>
 <use xlink:href="#E1-MJTT-52" x="2102" y="0"></use>
 <use xlink:href="#E1-MJTT-63" x="2877" y="0"></use>
 <use xlink:href="#E1-MJTT-6C" x="3403" y="0"></use>
 <use xlink:href="#E1-MJTT-61" x="3928" y="0"></use>
 <use xlink:href="#E1-MJTT-75" x="4454" y="0"></use>
 <use xlink:href="#E1-MJTT-73" x="4979" y="0"></use>
 <use xlink:href="#E1-MJTT-65" x="5505" y="0"></use>
 <use xlink:href="#E1-MJTT-3A" x="6308" y="0"></use>
</g>
<g transform="translate(1051,-1969)">
 <use xlink:href="#E1-MJTT-41" x="0" y="0"></use>
 <use xlink:href="#E1-MJTT-44" x="525" y="0"></use>
 <use xlink:href="#E1-MJTT-44" x="1051" y="0"></use>
 <use xlink:href="#E1-MJTT-63" x="1826" y="0"></use>
 <use xlink:href="#E1-MJTT-6C" x="2352" y="0"></use>
 <use xlink:href="#E1-MJTT-61" x="2877" y="0"></use>
 <use xlink:href="#E1-MJTT-75" x="3403" y="0"></use>
 <use xlink:href="#E1-MJTT-73" x="3928" y="0"></use>
 <use xlink:href="#E1-MJTT-65" x="4454" y="0"></use>
 <use xlink:href="#E1-MJTT-3A" x="5257" y="0"></use>
</g>
</g>
<g transform="translate(7823,0)">
<g transform="translate(0,717)">
 <use xlink:href="#E1-MJMAIN-7B" x="0" y="0"></use>
<g transform="translate(500,0)">
 <use xlink:href="#E1-MJTT-41" x="0" y="0"></use>
 <use xlink:href="#E1-MJTT-4C" x="525" y="0"></use>
 <use xlink:href="#E1-MJTT-54" x="1051" y="0"></use>
 <use xlink:href="#E1-MJTT-45" x="1576" y="0"></use>
 <use xlink:href="#E1-MJTT-52" x="2102" y="0"></use>
 <use xlink:href="#E1-MJTT-54" x="2877" y="0"></use>
 <use xlink:href="#E1-MJTT-41" x="3403" y="0"></use>
 <use xlink:href="#E1-MJTT-42" x="3928" y="0"></use>
 <use xlink:href="#E1-MJTT-4C" x="4454" y="0"></use>
 <use xlink:href="#E1-MJTT-45" x="4979" y="0"></use>
<g transform="translate(5755,0)">
 <use xlink:href="#E1-MJTT-63" x="0" y="0"></use>
 <use xlink:href="#E1-MJTT-6F" x="525" y="0"></use>
 <use xlink:href="#E1-MJTT-75" x="1051" y="0"></use>
 <use xlink:href="#E1-MJTT-6E" x="1576" y="0"></use>
 <use xlink:href="#E1-MJTT-74" x="2102" y="0"></use>
 <use xlink:href="#E1-MJTT-72" x="2627" y="0"></use>
 <use xlink:href="#E1-MJTT-69" x="3153" y="0"></use>
 <use xlink:href="#E1-MJTT-65" x="3678" y="0"></use>
 <use xlink:href="#E1-MJTT-73" x="4204" y="0"></use>
<g transform="translate(12,934)">
 <use xlink:href="#E1-MJSZ4-E150" x="23" y="0"></use>
<g transform="translate(516.3508928571429,0) scale(3.405357142857143,1)">
 <use xlink:href="#E1-MJSZ4-E154"></use>
</g>
<g transform="translate(1914,0)">
 <use xlink:href="#E1-MJSZ4-E153"></use>
 <use xlink:href="#E1-MJSZ4-E152" x="450" y="0"></use>
</g>
<g transform="translate(2847.6008928571428,0) scale(3.405357142857143,1)">
 <use xlink:href="#E1-MJSZ4-E154"></use>
</g>
 <use xlink:href="#E1-MJSZ4-E151" x="4255" y="0"></use>
</g>
<g transform="translate(1435,1468)">
 <use transform="scale(0.707)" xlink:href="#E1-MJTT-74" x="0" y="0"></use>
 <use transform="scale(0.707)" xlink:href="#E1-MJTT-61" x="525" y="0"></use>
 <use transform="scale(0.707)" xlink:href="#E1-MJTT-62" x="1051" y="0"></use>
 <use transform="scale(0.707)" xlink:href="#E1-MJTT-6C" x="1576" y="0"></use>
 <use transform="scale(0.707)" xlink:href="#E1-MJTT-65" x="2102" y="0"></use>
</g>
</g>
</g>
 <use xlink:href="#E1-MJMAIN-7D" x="10985" y="0"></use>
</g>
<g transform="translate(0,-1969)">
 <use xlink:href="#E1-MJMAIN-7B" x="0" y="0"></use>
<g transform="translate(500,0)">
 <use xlink:href="#E1-MJTT-41" x="0" y="0"></use>
 <use xlink:href="#E1-MJTT-44" x="525" y="0"></use>
 <use xlink:href="#E1-MJTT-44" x="1051" y="0"></use>
 <use xlink:href="#E1-MJTT-43" x="1826" y="0"></use>
 <use xlink:href="#E1-MJTT-4F" x="2352" y="0"></use>
 <use xlink:href="#E1-MJTT-4C" x="2877" y="0"></use>
 <use xlink:href="#E1-MJTT-55" x="3403" y="0"></use>
 <use xlink:href="#E1-MJTT-4D" x="3931" y="0"></use>
 <use xlink:href="#E1-MJTT-4E" x="4457" y="0"></use>
<g transform="translate(5232,0)">
 <use xlink:href="#E1-MJTT-63" x="0" y="0"></use>
 <use xlink:href="#E1-MJTT-6F" x="525" y="0"></use>
 <use xlink:href="#E1-MJTT-6E" x="1051" y="0"></use>
 <use xlink:href="#E1-MJTT-74" x="1576" y="0"></use>
 <use xlink:href="#E1-MJTT-69" x="2102" y="0"></use>
 <use xlink:href="#E1-MJTT-6E" x="2627" y="0"></use>
 <use xlink:href="#E1-MJTT-65" x="3153" y="0"></use>
 <use xlink:href="#E1-MJTT-6E" x="3678" y="0"></use>
 <use xlink:href="#E1-MJTT-74" x="4204" y="0"></use>
<g transform="translate(12,934)">
 <use xlink:href="#E1-MJSZ4-E150" x="23" y="0"></use>
<g transform="translate(516.3508928571429,0) scale(3.405357142857143,1)">
 <use xlink:href="#E1-MJSZ4-E154"></use>
</g>
<g transform="translate(1914,0)">
 <use xlink:href="#E1-MJSZ4-E153"></use>
 <use xlink:href="#E1-MJSZ4-E152" x="450" y="0"></use>
</g>
<g transform="translate(2847.6008928571428,0) scale(3.405357142857143,1)">
 <use xlink:href="#E1-MJSZ4-E154"></use>
</g>
 <use xlink:href="#E1-MJSZ4-E151" x="4255" y="0"></use>
</g>
<g transform="translate(563,1468)">
 <use transform="scale(0.707)" xlink:href="#E1-MJTT-6E" x="0" y="0"></use>
 <use transform="scale(0.707)" xlink:href="#E1-MJTT-65" x="525" y="0"></use>
 <use transform="scale(0.707)" xlink:href="#E1-MJTT-77" x="1051" y="0"></use>
 <use transform="scale(0.707)" xlink:href="#E1-MJTT-63" x="1930" y="0"></use>
 <use transform="scale(0.707)" xlink:href="#E1-MJTT-6F" x="2455" y="0"></use>
 <use transform="scale(0.707)" xlink:href="#E1-MJTT-6C" x="2981" y="0"></use>
 <use transform="scale(0.707)" xlink:href="#E1-MJTT-75" x="3506" y="0"></use>
 <use transform="scale(0.707)" xlink:href="#E1-MJTT-6D" x="4032" y="0"></use>
 <use transform="scale(0.707)" xlink:href="#E1-MJTT-6E" x="4568" y="0"></use>
</g>
</g>
<g transform="translate(10212,0)">
 <use xlink:href="#E1-MJTT-54" x="0" y="0"></use>
 <use xlink:href="#E1-MJTT-45" x="525" y="0"></use>
 <use xlink:href="#E1-MJTT-58" x="1051" y="0"></use>
 <use xlink:href="#E1-MJTT-54" x="1576" y="0"></use>
<g transform="translate(12,934)">
 <use xlink:href="#E1-MJSZ4-E150" x="23" y="0"></use>
<g transform="translate(486.63511904761907,0) scale(0.2773809523809524,1)">
 <use xlink:href="#E1-MJSZ4-E154"></use>
</g>
<g transform="translate(600,0)">
 <use xlink:href="#E1-MJSZ4-E153"></use>
 <use xlink:href="#E1-MJSZ4-E152" x="450" y="0"></use>
</g>
<g transform="translate(1504.1351190476191,0) scale(0.2773809523809524,1)">
 <use xlink:href="#E1-MJSZ4-E154"></use>
</g>
 <use xlink:href="#E1-MJSZ4-E151" x="1627" y="0"></use>
</g>
<g transform="translate(307,1541)">
 <use transform="scale(0.707)" xlink:href="#E1-MJTT-74" x="0" y="0"></use>
 <use transform="scale(0.707)" xlink:href="#E1-MJTT-79" x="525" y="0"></use>
 <use transform="scale(0.707)" xlink:href="#E1-MJTT-70" x="1051" y="0"></use>
 <use transform="scale(0.707)" xlink:href="#E1-MJTT-65" x="1576" y="0"></use>
</g>
</g>
</g>
 <use xlink:href="#E1-MJMAIN-7D" x="12814" y="0"></use>
 <use xlink:href="#E1-MJTT-3B" x="13315" y="0"></use>
</g>
</g>
</g>
<g transform="translate(21997,2719)">
 <use xlink:href="#E1-MJSZ4-23AB" x="0" y="-900"></use>
<g transform="translate(0,-1582.5857607170433) scale(1,2.3202114492509427)">
 <use xlink:href="#E1-MJSZ4-23AA"></use>
</g>
 <use xlink:href="#E1-MJSZ4-23AC" x="0" y="-2720"></use>
<g transform="translate(0,-4051.6938473758464) scale(1,2.3202114492509427)">
 <use xlink:href="#E1-MJSZ4-23AA"></use>
</g>
 <use xlink:href="#E1-MJSZ4-23AD" x="0" y="-4039"></use>
</g>
<g transform="translate(23053,0)">
 <use xlink:href="#E1-MJTT-73"></use>
 <use xlink:href="#E1-MJTT-74" x="525" y="0"></use>
 <use xlink:href="#E1-MJTT-61" x="1051" y="0"></use>
 <use xlink:href="#E1-MJTT-74" x="1576" y="0"></use>
 <use xlink:href="#E1-MJTT-65" x="2102" y="0"></use>
 <use xlink:href="#E1-MJTT-6D" x="2627" y="0"></use>
 <use xlink:href="#E1-MJTT-65" x="3153" y="0"></use>
 <use xlink:href="#E1-MJTT-6E" x="3678" y="0"></use>
 <use xlink:href="#E1-MJTT-74" x="4204" y="0"></use>
</g>
<g transform="translate(12,-2734)">
 <use xlink:href="#E1-MJSZ4-E152" x="23" y="0"></use>
<g transform="translate(777.0805732629929,0) scale(30.8505866592624,1)">
 <use xlink:href="#E1-MJSZ4-E154"></use>
</g>
<g transform="translate(13441,0)">
 <use xlink:href="#E1-MJSZ4-E151"></use>
 <use xlink:href="#E1-MJSZ4-E150" x="450" y="0"></use>
</g>
<g transform="translate(14635.3269701532,0) scale(30.8505866592624,1)">
 <use xlink:href="#E1-MJSZ4-E154"></use>
</g>
 <use xlink:href="#E1-MJSZ4-E153" x="27308" y="0"></use>
</g>
</g>
<g transform="translate(0,-3809)">
 <use xlink:href="#E1-MJTT-41" x="0" y="0"></use>
 <use xlink:href="#E1-MJTT-4C" x="525" y="0"></use>
 <use xlink:href="#E1-MJTT-54" x="1051" y="0"></use>
 <use xlink:href="#E1-MJTT-45" x="1576" y="0"></use>
 <use xlink:href="#E1-MJTT-52" x="2102" y="0"></use>
 <use xlink:href="#E1-MJTT-73" x="2877" y="0"></use>
 <use xlink:href="#E1-MJTT-74" x="3403" y="0"></use>
 <use xlink:href="#E1-MJTT-61" x="3928" y="0"></use>
 <use xlink:href="#E1-MJTT-74" x="4454" y="0"></use>
 <use xlink:href="#E1-MJTT-65" x="4979" y="0"></use>
 <use xlink:href="#E1-MJTT-6D" x="5505" y="0"></use>
 <use xlink:href="#E1-MJTT-65" x="6041" y="0"></use>
 <use xlink:href="#E1-MJTT-6E" x="6567" y="0"></use>
 <use xlink:href="#E1-MJTT-74" x="7092" y="0"></use>
 <use xlink:href="#E1-MJTT-28" x="7868" y="0"></use>
 <use xlink:href="#E1-MJTT-63" x="8393" y="0"></use>
 <use xlink:href="#E1-MJTT-68" x="8919" y="0"></use>
 <use xlink:href="#E1-MJTT-61" x="9444" y="0"></use>
 <use xlink:href="#E1-MJTT-6E" x="9970" y="0"></use>
 <use xlink:href="#E1-MJTT-67" x="10495" y="0"></use>
 <use xlink:href="#E1-MJTT-65" x="11021" y="0"></use>
 <use xlink:href="#E1-MJTT-73" x="11546" y="0"></use>
 <use xlink:href="#E1-MJTT-74" x="12322" y="0"></use>
 <use xlink:href="#E1-MJTT-68" x="12847" y="0"></use>
 <use xlink:href="#E1-MJTT-65" x="13373" y="0"></use>
 <use xlink:href="#E1-MJTT-73" x="14148" y="0"></use>
 <use xlink:href="#E1-MJTT-68" x="14674" y="0"></use>
 <use xlink:href="#E1-MJTT-61" x="15199" y="0"></use>
 <use xlink:href="#E1-MJTT-70" x="15725" y="0"></use>
 <use xlink:href="#E1-MJTT-65" x="16250" y="0"></use>
 <use xlink:href="#E1-MJTT-6F" x="17026" y="0"></use>
 <use xlink:href="#E1-MJTT-66" x="17551" y="0"></use>
 <use xlink:href="#E1-MJTT-74" x="18327" y="0"></use>
 <use xlink:href="#E1-MJTT-68" x="18852" y="0"></use>
 <use xlink:href="#E1-MJTT-65" x="19378" y="0"></use>
 <use xlink:href="#E1-MJTT-74" x="20153" y="0"></use>
 <use xlink:href="#E1-MJTT-61" x="20679" y="0"></use>
 <use xlink:href="#E1-MJTT-62" x="21204" y="0"></use>
 <use xlink:href="#E1-MJTT-6C" x="21730" y="0"></use>
 <use xlink:href="#E1-MJTT-65" x="22255" y="0"></use>
 <use xlink:href="#E1-MJTT-2C" x="22781" y="0"></use>
 <use xlink:href="#E1-MJTT-6E" x="23723" y="0"></use>
 <use xlink:href="#E1-MJTT-6F" x="24248" y="0"></use>
 <use xlink:href="#E1-MJTT-74" x="24774" y="0"></use>
 <use xlink:href="#E1-MJTT-69" x="25549" y="0"></use>
 <use xlink:href="#E1-MJTT-74" x="26075" y="0"></use>
 <use xlink:href="#E1-MJTT-73" x="26600" y="0"></use>
 <use xlink:href="#E1-MJTT-72" x="27376" y="0"></use>
 <use xlink:href="#E1-MJTT-6F" x="27901" y="0"></use>
 <use xlink:href="#E1-MJTT-77" x="28427" y="0"></use>
 <use xlink:href="#E1-MJTT-73" x="28952" y="0"></use>
 <use xlink:href="#E1-MJTT-29" x="29478" y="0"></use>
</g>
</g>
</svg>